<svg width="2035" height="374" viewBox="0 0 2035 374" fill="none" xmlns="http://www.w3.org/2000/svg">
<g clip-path="url(#clip0_505_822)">
<path d="M1.65796 315.184C10.3168 312.15 18.9823 309.221 27.4993 305.798C35.8782 302.407 43.8716 298.135 51.3466 293.054C65.5745 283.345 78.1606 271.126 93.6827 263.327C101.421 259.233 109.965 256.887 118.721 256.451C118.865 256.462 119.002 256.516 119.113 256.608C119.225 256.7 119.305 256.824 119.343 256.963C119.381 257.103 119.375 257.25 119.326 257.385C119.277 257.521 119.186 257.637 119.068 257.718L96.4359 268.571C88.893 272.206 81.5112 276.026 73.8792 279.602C72.8079 280.22 71.769 278.468 72.9088 277.921C80.4397 274.265 88.0971 270.923 95.7051 267.305L118.397 256.556C118.601 256.908 118.619 257.368 118.731 257.801C102.015 258.156 87.5026 267.752 75.0616 278.034C68.2021 283.71 61.5483 289.599 54.307 294.803C47.0929 299.9 39.3205 304.156 31.139 307.487C21.6943 311.297 12.0323 314.547 2.20248 317.222C0.954827 317.582 0.482184 315.669 1.6939 315.247L1.65796 315.184Z" fill="black" fill-opacity="0.1"/>
<path d="M3.32964 314.607C17.5212 312.638 29.5258 302.885 44.295 303.821C51.4401 304.557 58.4711 306.185 65.2243 308.669C72.3152 311.008 79.2675 313.756 86.0462 316.9C93.6577 320.509 101.061 324.548 108.221 328.998C108.389 329.099 108.52 329.252 108.594 329.433C108.668 329.615 108.683 329.815 108.635 330.005C108.587 330.194 108.479 330.362 108.327 330.485C108.176 330.607 107.989 330.677 107.794 330.684C100.208 330.581 92.416 330.598 85.6071 326.893C78.7982 323.188 73.8802 316.62 67.0885 312.85C66.9051 312.747 66.7696 312.575 66.7118 312.372C66.654 312.169 66.6787 311.952 66.7804 311.769C66.8821 311.585 67.0525 311.45 67.2541 311.394C67.4558 311.337 67.6721 311.363 67.8555 311.466C74.3712 315.092 79.5703 320.528 85.9658 324.278C92.3612 328.029 100.327 328.742 107.875 328.921C107.728 329.476 107.561 330.043 107.427 330.619C101.192 326.848 94.7294 323.473 88.0775 320.514C81.329 317.403 74.4108 314.681 67.3568 312.363C60.6363 309.938 53.7081 308.149 46.6632 307.018C39.6768 306.243 32.6173 307.143 26.0651 309.642C18.709 312.174 11.4684 315.524 3.60908 315.995C2.84389 316.049 2.65692 314.774 3.41875 314.666L3.32964 314.607Z" fill="black" fill-opacity="0.1"/>
<path d="M36.1673 303.588C42.4136 305.318 48.7804 306.563 55.2111 307.312C61.1796 307.854 67.1902 307.395 72.9959 305.953C83.7711 303.301 93.7862 298.238 104.534 295.491C110.376 293.871 116.486 293.427 122.514 294.185L122.028 295.96C106.477 291.79 89.9797 293.445 75.6278 300.615C71.5519 302.64 67.7319 305.143 64.2474 308.071C64.1344 308.191 63.9969 308.285 63.8441 308.346C63.6913 308.407 63.5269 308.435 63.3622 308.426C63.1976 308.418 63.0364 308.373 62.8899 308.297C62.7434 308.22 62.6149 308.113 62.5133 307.982C62.4116 307.851 62.3393 307.699 62.3012 307.538C62.263 307.377 62.26 307.21 62.2923 307.048C62.3246 306.886 62.3915 306.733 62.4883 306.599C62.5852 306.466 62.7097 306.356 62.8534 306.275C75.9337 296.192 92.1791 291.106 108.708 291.92C113.359 292.173 117.974 292.911 122.478 294.123C123.651 294.442 123.135 296.068 121.992 295.898C110.715 294.302 99.821 298.461 89.4781 302.386C79.1351 306.31 68.2005 310.16 56.7062 309.188C49.62 308.372 42.6161 306.925 35.7779 304.864C34.9101 304.646 35.2636 303.308 36.1314 303.526L36.1673 303.588Z" fill="black" fill-opacity="0.1"/>
<path d="M2.25161 315.118C7.19687 313.824 12.3767 313.671 17.4035 314.671C22.6592 315.557 27.8326 316.893 32.8667 318.663C44.2405 322.472 55.8048 326.088 66.8049 330.914C72.6263 333.279 78.0962 336.443 83.0568 340.317C83.6188 340.767 82.8355 341.552 82.294 341.09C77.8883 337.66 73.0183 334.881 67.8333 332.838C62.6828 330.721 57.2861 329.272 52.0168 327.472L34.875 321.571C30.0724 319.852 25.1736 318.421 20.2048 317.286C17.3403 316.645 14.426 316.263 11.4968 316.144C8.58469 316.132 5.6783 316.366 2.80853 316.844C2.5948 316.875 2.37671 316.826 2.19575 316.706C2.01479 316.587 1.88352 316.405 1.82687 316.195C1.77022 315.985 1.79214 315.762 1.88846 315.569C1.98477 315.375 2.14879 315.224 2.34935 315.145L2.25161 315.118Z" fill="black" fill-opacity="0.1"/>
</g>
<g clip-path="url(#clip1_505_822)">
<path d="M1854.47 302.979C1855.74 299.637 1857.73 296.616 1860.3 294.13C1862.87 291.644 1865.96 289.753 1869.34 288.59C1871.59 287.812 1873.73 286.626 1875.91 285.641C1873.91 284.708 1871.75 284.185 1869.55 284.104C1864.34 283.918 1859.41 281.696 1855.82 277.914C1855.12 276.855 1854.65 275.66 1854.44 274.407C1854.23 273.154 1854.29 271.872 1854.62 270.645C1855.27 268.258 1858.09 269.332 1859.89 270.082C1865.71 272.401 1872.1 274.072 1877.1 277.633C1883.66 282.381 1890.81 282.371 1898.04 283.279C1886.52 278.245 1876.85 269.733 1870.39 258.934C1868.93 256.403 1867.32 256.441 1865.02 257.443C1859.56 259.78 1853.4 259.864 1847.87 257.677C1842.34 255.491 1837.9 251.209 1835.5 245.764C1834.97 244.584 1834.73 242.51 1835.41 241.796C1836 241.415 1836.66 241.161 1837.35 241.049C1838.04 240.936 1838.74 240.969 1839.42 241.145C1843.16 241.837 1846.85 242.83 1850.56 243.716L1851.25 243.791L1850.64 243.423C1850.03 242.635 1849.35 241.897 1848.62 241.214C1843.76 236.88 1840.28 231.211 1838.62 224.914C1838.43 223.469 1838.49 222.003 1838.81 220.582C1840.02 220.732 1841.4 220.506 1842.38 221.006C1849.19 224.205 1855.18 228.929 1859.88 234.812C1858.9 230.633 1858.22 226.386 1857.87 222.107C1857.8 215.713 1855.76 209.494 1852.02 204.3C1850 200.682 1848.17 196.963 1846.53 193.158C1846.02 192.283 1844.51 191.122 1843.77 191.301C1829.44 194.816 1818.14 186.53 1805.98 181.594C1803.4 180.602 1803.48 178.077 1806.08 176.701C1808.23 175.507 1810.6 174.754 1813.04 174.488C1822.62 173.891 1832.16 176.07 1840.54 180.765C1838.84 175.642 1836.95 171.078 1835.83 166.344C1834.34 159.987 1833.85 153.522 1836.96 147.382C1838.42 144.534 1840.61 143.789 1842.41 145.798C1844.71 148.186 1846.64 150.902 1848.13 153.858C1850.09 158.106 1851.17 162.702 1851.31 167.374C1851.46 172.046 1850.66 176.698 1848.98 181.054C1848.17 183.042 1847.9 185.208 1848.19 187.334C1849.73 194.006 1852.62 200.291 1856.7 205.793C1857.9 198.871 1858.91 192.462 1860.24 186.187C1862.76 174.802 1866.98 163.863 1872.75 153.735C1873.49 152.643 1873.88 151.35 1873.86 150.029C1873.84 148.709 1873.42 147.425 1872.65 146.352C1870.57 143.137 1868.81 139.71 1866.79 136.463C1861.92 128.536 1856.59 121.194 1846.06 120.722C1845.73 120.687 1845.4 120.599 1845.1 120.462C1838.56 118.343 1833.06 113.845 1829.67 107.859C1828.17 105.255 1829.29 103.341 1832.25 103.098C1833.24 103.129 1834.22 103.277 1835.18 103.54C1842.97 105.117 1850.38 107.535 1855.98 112.889C1856.3 108.623 1856.88 104.383 1857.73 100.191C1858.17 98.501 1860.57 97.3388 1862.09 95.9402C1863.51 97.1349 1864.71 98.5802 1865.62 100.205C1867.98 107.723 1868.24 115.163 1863.76 122.212C1863.46 122.849 1863.32 123.547 1863.34 124.251C1863.36 124.955 1863.54 125.644 1863.87 126.265C1867.68 132.523 1871.71 138.634 1875.75 144.735C1875.93 145.051 1877.62 144.922 1877.71 144.695C1879.81 138.769 1882.76 132.947 1883.57 126.847C1885.04 115.533 1879.11 106.899 1871.03 99.5853C1859.46 89.1209 1837.83 82.6595 1822.8 93.6432C1821.08 94.8061 1819.74 96.4431 1818.94 98.3559C1817.48 102.045 1815.44 105.471 1812.88 108.499C1808.17 113.334 1803.2 117.916 1798 122.226C1796.89 123.216 1794.75 124.401 1793.85 123.954C1793.11 123.479 1792.49 122.86 1792 122.135C1791.51 121.41 1791.18 120.593 1791.01 119.735C1790.59 117.018 1790.77 114.243 1791.54 111.606C1792.32 108.969 1793.66 106.536 1795.48 104.481C1799.21 99.6994 1804.56 97.4769 1809.88 95.1027L1810.12 94.9633L1809.88 95.1027L1803.91 95.1967C1800.01 95.3166 1796.13 94.5129 1792.58 92.8508C1789.04 91.1887 1785.94 88.715 1783.53 85.6305C1779.94 81.1293 1781.38 78.1196 1787.04 77.7737C1791.21 77.4249 1795.4 77.4987 1799.55 77.9937C1807.67 79.1862 1815.13 81.8993 1818.77 90.265C1819.62 92.2541 1820.71 91.4297 1821.87 90.7356C1834.24 83.296 1846.98 83.5312 1859.97 88.9272C1862.31 89.8854 1864.63 90.9022 1866.94 91.9004C1866.56 91.2405 1866.09 90.6341 1865.55 90.0971C1856.56 82.8858 1847.75 75.1438 1835.9 72.6628C1826.83 70.776 1820.96 64.4188 1815.85 57.3716C1814.9 56.062 1815.44 53.6629 1815.29 51.7671C1816.86 51.6295 1818.44 51.6908 1820 51.9494C1829.36 54.6191 1838.03 59.299 1845.4 65.6627C1845.24 63.6231 1845.03 61.8074 1844.94 59.9753C1844.48 54.6162 1846.05 49.284 1849.34 45.033C1852.51 40.9968 1856.27 41.2067 1857.56 45.7191C1859.16 51.2644 1860.16 56.9661 1860.54 62.7248C1860.74 64.9887 1860.37 67.2647 1859.47 69.3484C1858.56 71.432 1857.16 73.2581 1855.38 74.6628C1852.76 76.6461 1853.49 77.2667 1855.67 78.5131C1857.72 79.6051 1859.64 80.9277 1861.39 82.4551C1865.42 86.0819 1869.23 89.9417 1872.81 94.0148C1875.46 97.4987 1877.89 101.143 1880.08 104.927C1880.66 102.332 1880.93 99.6775 1880.89 97.0185C1881.7 86.9264 1886.09 83.2985 1892.78 81.0737C1896.48 79.8535 1897.73 81.0687 1897.44 84.8572C1896.48 94.5158 1893.98 103.525 1885.96 109.917C1884.76 110.883 1884.34 111.399 1885.04 113.05C1886.63 116.551 1887.48 120.341 1887.54 124.183C1887.6 128.026 1886.86 131.837 1885.38 135.379C1882.18 143.179 1878.45 150.789 1874.7 158.391C1870.63 166.05 1867.68 174.257 1865.96 182.759C1868.74 181.362 1871.32 179.598 1873.63 177.513C1879.74 171.724 1885.39 165.415 1891.8 159.974C1893.6 158.684 1894.96 156.868 1895.68 154.775C1896.41 152.682 1896.47 150.415 1895.85 148.285C1894.82 143.265 1894.27 138.16 1894.2 133.038C1894.25 130.202 1894.86 127.404 1896 124.807C1897.14 122.21 1898.77 119.864 1900.82 117.906C1903.5 115.169 1905.85 115.722 1907.19 119.193C1907.5 120.135 1907.74 121.103 1907.89 122.085C1909.63 131.346 1908.64 140.909 1905.06 149.615L1910.13 147.929C1916.11 145.967 1922.12 144.851 1928 147.908C1928.83 148.292 1929.58 148.851 1930.18 149.547C1930.78 150.243 1931.23 151.06 1931.49 151.943C1931.3 152.871 1930.91 153.745 1930.34 154.502C1929.77 155.259 1929.04 155.881 1928.2 156.323C1924.29 158.517 1919.98 159.91 1915.52 160.422C1911.07 160.935 1906.55 160.555 1902.24 159.307C1900.93 158.82 1899.51 158.741 1898.16 159.079C1896.81 159.416 1895.59 160.156 1894.67 161.199C1888.85 167.038 1883.03 172.876 1877.06 178.579C1873.97 181.505 1871.05 184.709 1866.41 185.522C1865.76 185.788 1865.19 186.21 1864.74 186.75C1864.29 187.29 1863.99 187.931 1863.84 188.619C1862.9 197.843 1861.38 207.131 1861.67 216.34C1862.02 233.056 1867.67 249.237 1877.82 262.534C1881.38 267.248 1889.34 273.915 1893.63 275.257C1892.77 272.999 1891.78 270.547 1890.91 268.049C1889.87 264.254 1887.45 260.987 1884.11 258.899C1879.79 256.313 1876.43 252.373 1874.57 247.689C1872.83 243.434 1872.06 239.045 1874.24 234.711C1876.3 230.74 1879.16 230.378 1881.03 234.308C1883.29 239.089 1885.25 244.009 1886.89 249.036C1887.94 252.053 1888.45 255.255 1889.2 258.366L1890.28 258.215C1890.21 256.468 1890.22 254.727 1890.09 252.993C1889.39 243.674 1894.16 239.283 1901.17 235.259C1902.88 234.272 1904.86 234.02 1904.75 237.163C1904.65 246.568 1903.24 255.397 1894.8 261.411C1894.27 261.844 1893.84 262.392 1893.55 263.014C1893.27 263.636 1893.12 264.316 1893.13 265.002C1894.82 274.994 1900.37 280.322 1910.31 281.878C1911.95 282.152 1913.61 282.273 1915.27 282.238C1942.44 281.434 1961.69 268.285 1973.4 244.135C1977.7 235.795 1979.25 226.304 1977.83 217.021C1977.03 212.248 1974.91 208.314 1970.41 206.57C1964.42 204.251 1958.15 202.487 1951.97 200.747C1950.86 200.418 1949.22 201.391 1948.04 202.096C1942.56 205.259 1937.42 208.999 1931.86 211.936C1926.3 214.873 1920.14 216.046 1914.36 212.118C1912.6 210.923 1909.73 209.458 1910.87 206.687C1912.02 205.025 1913.71 203.813 1915.65 203.257C1922.14 200.727 1928.71 198.471 1935.05 196.199C1932.09 193.422 1929.36 191.053 1926.92 188.495C1926.61 188.037 1926.41 187.512 1926.34 186.964C1926.28 186.416 1926.34 185.86 1926.53 185.343C1926.83 184.747 1928.49 184.438 1929.44 184.631C1937.8 186.252 1946.09 188.04 1951.26 195.921C1951.87 196.72 1952.71 197.301 1953.68 197.576C1960.14 199.55 1966.64 201.406 1973.27 203.379C1968.35 196.302 1963.01 189.461 1955.6 184.782C1950.41 181.501 1945.01 178.493 1938.69 178.002C1926.9 177.018 1916.48 180.753 1906.89 187.258C1906.55 187.562 1906.28 187.93 1906.09 188.342C1905.91 188.753 1905.8 189.199 1905.79 189.652C1905.72 196.265 1902.32 201.306 1898.28 206.02C1894.24 210.733 1890.43 214.942 1886.38 219.29C1885.31 220.18 1884.12 220.923 1882.85 221.501C1882 220.196 1881.37 218.757 1880.99 217.243C1880.48 209.185 1883.15 201.253 1888.41 195.147C1888.84 194.65 1889.34 194.216 1889.74 193.711C1890.14 193.207 1890.24 192.903 1890.07 193.172C1885.72 193.007 1881.29 193.01 1876.89 192.598C1876.29 192.422 1875.74 192.108 1875.29 191.68C1874.83 191.252 1874.49 190.723 1874.28 190.136C1874.05 189.447 1875.08 187.962 1875.95 187.41C1879 185.112 1882.33 183.193 1885.85 181.695C1891.34 179.84 1897.1 178.67 1902.31 183.104C1902.77 183.337 1903.27 183.465 1903.79 183.481C1904.3 183.497 1904.81 183.4 1905.29 183.197C1908.04 182.052 1910.69 180.626 1913.4 179.358C1923.39 174.754 1933.69 172.603 1944.65 175.378C1943.82 174.369 1943.02 173.368 1942.17 172.37C1939.72 169.761 1937.89 166.629 1936.82 163.211C1935.75 159.793 1935.47 156.177 1936 152.638C1936.49 149.655 1937.92 148.926 1939.85 150.716C1947.63 157.308 1952.83 166.447 1954.51 176.506C1954.61 177.661 1954.98 178.778 1955.59 179.766C1956.2 180.754 1957.03 181.586 1958.02 182.195C1967.11 188.852 1974.61 196.777 1978.68 207.648C1981.56 215.375 1982.5 223.683 1981.44 231.853C1983.79 226.278 1985.94 220.725 1987.71 215.04C1988.77 211.6 1990.73 207.414 1989.61 204.565C1988.66 202.015 1984.21 200.662 1981.21 198.945C1972.83 194.16 1968.48 187.097 1969.01 177.339C1969.13 174.965 1968.76 171.552 1971.78 171.2C1973.34 171.021 1975.65 173.356 1976.93 175.051C1980.94 180.421 1984.65 186.022 1988.69 191.872C1988.12 188.204 1988.8 184.451 1990.61 181.217C1992.43 177.983 1995.28 175.454 1998.7 174.038C1999.94 173.445 2002.19 172.667 2002.67 173.187C2003.56 174.429 2003.97 175.945 2003.85 177.465C2003.19 186.952 1999.33 195.378 1995.31 203.852C1993.07 208.545 1991.5 213.497 1989.6 218.285C1993.09 216.818 1995.62 214.936 1998.38 213.493C2001.06 211.987 2004.02 211.032 2007.07 210.686C2010.13 210.339 2013.23 210.607 2016.18 211.475C2016.76 211.694 2017.29 212.033 2017.73 212.469C2018.18 212.905 2018.53 213.428 2018.76 214.006C2018.98 214.695 2017.98 216.044 2017.2 216.763C2015.6 218.219 2013.88 219.549 2012.07 220.743C2006.53 224.391 2000.92 228.745 1993.92 227.9C1988.07 227.16 1985.52 229.1 1983.47 234.302C1981.67 238.815 1977.97 242.44 1975.91 246.93C1969.77 260.246 1959.54 271.241 1946.7 278.305C1931.24 286.659 1914.27 288.021 1897.06 286.676C1893.92 286.319 1890.81 285.771 1887.74 285.035C1885.42 284.586 1884.01 284.708 1883.13 287.694C1881.91 290.863 1880.12 293.781 1877.85 296.301C1872.28 302.74 1863.65 302.887 1856.42 305.894C1854.21 306.824 1853.52 305.114 1854.47 302.979ZM1852.49 248.085C1848.44 246.776 1844.2 245.998 1839.26 244.81C1843.53 253.581 1855.67 258.402 1864.04 255.183C1864.57 254.857 1865.03 254.438 1865.41 253.947C1864.96 253.493 1864.46 253.099 1863.91 252.776C1860.03 251.197 1856.32 249.397 1852.4 248.139L1852.49 248.085ZM1842.11 224.581C1845.51 235.396 1852.81 241.052 1861.93 246.034C1858.34 235.875 1851.36 229.911 1842.02 224.635L1842.11 224.581ZM1842.48 149.95C1841.92 149.212 1841.11 148.703 1840.2 148.518C1839.88 148.479 1839.12 149.659 1838.82 150.427C1836.51 157.568 1837.97 164.515 1840.33 171.311C1841.49 174.657 1843.09 177.853 1844.88 182.028C1850.02 170.13 1848.99 159.81 1842.4 150.022L1842.48 149.95ZM1855.89 117.407C1849.92 110.679 1842.24 107.498 1833 106.382C1833.92 108.501 1835.26 110.413 1836.93 112.005C1838.6 113.596 1840.58 114.835 1842.74 115.647C1846.53 117.249 1850.54 118.359 1854.47 119.588C1855.25 119.706 1856.04 119.701 1856.82 119.574C1856.57 118.805 1856.19 118.082 1855.71 117.437L1855.89 117.407ZM1863.78 115.129C1865.22 109.994 1864.7 104.504 1862.32 99.7268C1861.26 101.998 1860.47 104.386 1859.96 106.842C1859.9 109.646 1860.16 112.45 1860.75 115.194C1861.04 116.495 1861.42 117.774 1861.9 119.022C1862.59 117.794 1863.16 116.5 1863.6 115.159L1863.78 115.129ZM1797.88 107.042C1796.31 109.896 1795.08 112.915 1794.18 116.045C1793.85 117.133 1794.53 118.526 1794.74 119.793L1798.1 118.151C1804.12 112.964 1811 108.024 1814.99 100.235C1815.51 99.3992 1815.88 98.4871 1816.11 97.5327C1816.16 97.1543 1814.78 96.1686 1814.63 96.2544C1808.95 100.151 1801.44 100.866 1797.69 107.072L1797.88 107.042ZM1807.26 83.3187C1800.91 80.511 1794.09 80.5016 1787.29 80.8091C1786.52 80.9656 1785.79 81.2463 1785.12 81.6401C1785.34 82.5114 1785.7 83.3412 1786.19 84.0972C1789.87 88.436 1795.11 91.1496 1800.78 91.65C1804.67 91.8806 1808.7 91.6127 1812.64 91.8697C1816.58 92.1268 1815.73 90.705 1814.57 88.0512C1812.21 86.2681 1809.71 84.6946 1807.08 83.3486L1807.26 83.3187ZM1844.19 70.0832C1840.63 66.9199 1836.88 63.9712 1832.97 61.2528C1829.24 59.0838 1825.36 57.1793 1821.36 55.5533C1820.59 55.3411 1819.79 55.2366 1818.98 55.2425L1819.34 57.7129C1823.03 62.7377 1828.1 66.5845 1833.93 68.7867C1836.96 69.7424 1839.89 70.7809 1842.89 71.7287C1843.35 71.8039 1843.82 71.8147 1844.29 71.7607C1844.27 71.2042 1844.38 70.3701 1844.05 70.0917L1844.19 70.0832ZM1852.17 73.0926C1854.24 71.037 1855.89 68.5919 1857.03 65.8967C1858.94 59.6065 1856.56 53.5133 1855.04 47.4942C1854.15 45.2576 1852.57 45.4765 1851.8 47.0615C1850.02 50.0126 1848.85 53.2863 1848.35 56.6946C1848.45 61.8046 1848.91 66.9017 1849.72 71.9484C1849.74 73.9006 1850.86 74.4691 1852.02 73.1011L1852.17 73.0926ZM1867.16 92.118C1867.3 92.3599 1867.57 92.5267 1867.79 92.7256C1867.72 92.614 1867.79 92.398 1867.75 92.3715C1867.56 92.2733 1867.37 92.1886 1867.16 92.118ZM1885.93 106.09C1889.74 101.705 1892.36 96.4019 1893.51 90.6994C1893.69 89.8927 1893.81 89.0716 1893.85 88.2451C1893.92 86.8652 1893.87 85.5017 1893.93 84.1031L1888.66 85.1374C1886.91 88.0638 1885.47 91.1712 1884.38 94.4061C1883.83 97.9988 1883.66 101.64 1883.87 105.27C1883.93 105.846 1884.09 106.409 1884.33 106.935C1884.92 106.761 1885.46 106.474 1885.93 106.09ZM1925.7 153.97C1926.5 153.441 1927.27 152.859 1927.99 152.228C1927.09 151.56 1926.19 150.343 1925.28 150.32C1921.06 150.075 1916.82 150.252 1912.64 150.849C1909.04 151.922 1905.56 153.333 1902.24 155.064L1902.69 156.221C1910.49 157.172 1918.31 158.113 1925.68 153.933L1925.7 153.97ZM1903.12 145.776C1905.74 138.071 1906.28 129.81 1904.69 121.823C1904.22 120.754 1903.63 119.737 1902.94 118.79C1901.19 121.893 1899.59 125.083 1898.16 128.349C1896.04 134.035 1897.35 139.807 1898.33 145.493C1898.69 147.539 1899.29 149.524 1899.79 151.544C1901.08 149.731 1902.19 147.8 1903.12 145.776ZM1840.29 184.407C1832.68 179.635 1823.81 177.262 1814.84 177.595C1812.77 177.699 1810.73 178.079 1808.67 178.327C1818.12 183.144 1827.18 188.725 1838.09 188.954C1838.41 189 1838.75 188.983 1839.07 188.905C1840.69 188.27 1842.27 187.58 1843.86 186.908C1842.7 185.986 1841.5 185.126 1840.25 184.333L1840.29 184.407ZM1895.64 256.638C1897.66 254.484 1899.23 251.946 1900.25 249.174C1901.27 246.401 1901.73 243.45 1901.59 240.496C1901.6 240.246 1900.2 239.665 1899.73 239.885C1898.06 240.608 1896.61 241.752 1895.52 243.204C1894.43 244.657 1893.73 246.369 1893.5 248.173C1893.29 251.104 1893.27 254.045 1893.46 256.978C1894.47 256.842 1895.3 256.956 1895.69 256.731L1895.64 256.638ZM1930.37 201.509C1925.83 202.913 1921.38 204.64 1916.89 206.262C1916.16 206.564 1915.46 206.914 1914.78 207.312C1915.22 208.12 1915.82 208.836 1916.54 209.42C1918.75 210.546 1921.22 211.073 1923.7 210.948C1926.18 210.823 1928.58 210.05 1930.66 208.707C1936.04 205.8 1941.25 202.595 1946.6 199.507C1940.8 197.398 1935.61 199.87 1930.37 201.509ZM1932.39 187.545L1931.79 188.831C1935.66 192.652 1940.03 195.259 1945.69 194.895L1946.22 193.699L1932.39 187.545ZM1897.78 184.008C1892.18 182.407 1887.09 184.229 1881.45 186.689L1879.6 189.147C1880.68 189.438 1881.87 190.166 1882.86 189.944C1887.95 188.767 1893 187.39 1898.05 186.013C1898.49 185.795 1898.87 185.487 1899.18 185.108C1898.72 184.732 1898.31 184.15 1897.78 184.008ZM1897.64 191.53C1889.95 197.336 1883.98 204.973 1884.51 216.304C1891.04 209.181 1898.05 203.522 1901.63 195.055C1902.22 193.206 1902.63 191.308 1902.86 189.383C1901.03 189.855 1899.26 190.552 1897.6 191.456L1897.64 191.53ZM1939.2 154.016C1938.48 162.718 1942.2 169.251 1951.67 176.433C1949.57 167.961 1945.25 160.199 1939.16 153.942L1939.2 154.016ZM1996.75 193.424C1998.41 188.592 1999.73 183.617 2001.11 178.677C2001.17 177.881 2001.11 177.079 2000.92 176.302L1999.03 176.799C1993.64 180.88 1990.97 185.868 1991.91 192.422C1992.26 194.97 1992.78 197.498 1993.24 200.04C1994.6 197.943 1995.77 195.729 1996.75 193.424ZM1974.45 176.853C1973.93 176.373 1973.38 175.927 1972.81 175.516C1972.5 176.086 1972.28 176.699 1972.15 177.335C1972.01 183.741 1973.57 189.488 1979.01 193.495C1981.55 195.327 1984.23 196.928 1987.54 199.089C1985.16 190.646 1980.65 182.955 1974.44 176.757L1974.45 176.853ZM1991.35 225.166C1997.65 225.966 2002.86 223.137 2007.79 219.765C2010.08 218.446 2012.36 217.127 2014.65 215.808C2015.02 215.53 2015.36 215.203 2015.64 214.835C2015.17 214.54 2014.65 214.302 2014.12 214.127C2009.58 213.053 2004.81 213.813 2000.83 216.243C1997.27 218.302 1993.89 220.648 1990.46 222.9C1989.97 223.335 1989.53 223.83 1989.16 224.373C1989.86 224.692 1990.59 224.926 1991.34 225.07L1991.35 225.166ZM1885.21 253.283C1883.33 248.237 1881.48 243.181 1879.52 238.16C1879.05 237.366 1878.47 236.651 1877.78 236.041C1877.18 236.938 1876.73 237.926 1876.44 238.967C1875.84 245.516 1879.3 250.045 1883.71 254.045L1885.21 253.283ZM1858.15 272.725C1857.69 273.172 1857.36 273.724 1857.17 274.332C1859.07 276.038 1860.85 278.481 1863.11 279.136C1867.65 280.234 1872.25 281.041 1876.89 281.552C1871.83 276.089 1864.82 274.724 1858.11 272.746L1858.15 272.725ZM1877.71 281.599L1877.31 281.633L1877.38 281.763C1877.38 281.763 1877.6 281.663 1877.67 281.621L1877.71 281.599ZM1879.57 287.396C1872.53 291.806 1863.45 292.383 1859.07 300.792C1869.66 300.087 1877.4 295.096 1879.53 287.417L1879.57 287.396Z" fill="black" fill-opacity="0.1"/>
</g>
<defs>
<clipPath id="clip0_505_822">
<rect width="132.34" height="66.6102" fill="white" transform="matrix(-0.866025 0.5 0.5 0.866025 115.164 249.624)"/>
</clipPath>
<clipPath id="clip1_505_822">
<rect width="195" height="262" fill="white" transform="matrix(-0.866025 0.5 0.5 0.866025 1903.44 0.800781)"/>
</clipPath>
</defs>
</svg>
